ply
format ascii 1.0
comment Created by Open3D
element vertex 15
property double x
property double y
property double z
property uchar red
property uchar green
property uchar blue
element face 10
property list uchar uint vertex_indices
end_header
0 0 1 0 255 0
0 0 -1 0 255 0
0.587785 0 0.809017 0 255 0
0.475528 0.345492 0.809017 0 0 255
0.181636 0.559017 0.809017 255 0 0
-0.181636 0.559017 0.809017 255 0 0
-0.475528 0.345492 0.809017 0 255 0
-0.587785 7.19829e-17 0.809017 0 255 0
-0.475528 -0.345492 0.809017 0 255 0
-0.181636 -0.559017 0.809017 0 0 255
0.181636 -0.559017 0.809017 255 0 0
0.475528 -0.345492 0.809017 0 255 0
0.951057 0 0.309017 0 0 255
0.769421 0.559017 0.309017 0 0 255
0.293893 0.904508 0.309017 255 0 0
3 0 2 3
3 0 3 4
3 0 4 5
3 0 5 6
3 0 6 7
3 0 7 8
3 0 8 9
3 0 9 10
3 0 10 11
3 0 11 2
